<svg xmlns="http://www.w3.org/2000/svg" xmlns:xlink="http://www.w3.org/1999/xlink" width="500" zoomAndPan="magnify" viewBox="0 0 375 374.999991" height="500" preserveAspectRatio="xMidYMid meet" version="1.0"><defs><clipPath id="id1"><path d="M 221 121 L 239 121 L 239 276.566406 L 221 276.566406 Z M 221 121 " clip-rule="nonzero"/></clipPath><clipPath id="id2"><path d="M 235 132 L 239 132 L 239 276.566406 L 235 276.566406 Z M 235 132 " clip-rule="nonzero"/></clipPath><clipPath id="id3"><path d="M 77 121 L 95 121 L 95 276.566406 L 77 276.566406 Z M 77 121 " clip-rule="nonzero"/></clipPath><clipPath id="id4"><path d="M 91 132 L 95 132 L 95 276.566406 L 91 276.566406 Z M 91 132 " clip-rule="nonzero"/></clipPath><clipPath id="id5"><path d="M 61.976562 139 L 251 139 L 251 178 L 61.976562 178 Z M 61.976562 139 " clip-rule="nonzero"/></clipPath><clipPath id="id6"><path d="M 61.976562 189 L 251 189 L 251 227 L 61.976562 227 Z M 61.976562 189 " clip-rule="nonzero"/></clipPath><clipPath id="id7"><path d="M 66 98.066406 L 104 98.066406 L 104 135 L 66 135 Z M 66 98.066406 " clip-rule="nonzero"/></clipPath><clipPath id="id8"><path d="M 61.976562 139 L 251 139 L 251 178 L 61.976562 178 Z M 61.976562 139 " clip-rule="nonzero"/></clipPath><clipPath id="id9"><path d="M 61.976562 189 L 251 189 L 251 227 L 61.976562 227 Z M 61.976562 189 " clip-rule="nonzero"/></clipPath><clipPath id="id10"><path d="M 211 98.066406 L 249 98.066406 L 249 135 L 211 135 Z M 211 98.066406 " clip-rule="nonzero"/></clipPath><clipPath id="id11"><path d="M 232 263 L 313.226562 263 L 313.226562 276.566406 L 232 276.566406 Z M 232 263 " clip-rule="nonzero"/></clipPath><clipPath id="id12"><path d="M 286 263 L 313.226562 263 L 313.226562 276.566406 L 286 276.566406 Z M 286 263 " clip-rule="nonzero"/></clipPath></defs><g clip-path="url(#id1)"><path fill="rgb(65.489197%, 64.709473%, 65.098572%)" d="M 221.132812 276.5 L 238.394531 276.5 L 238.394531 121.992188 L 221.132812 121.992188 Z M 221.132812 276.5 " fill-opacity="1" fill-rule="nonzero"/></g><g clip-path="url(#id2)"><path fill="rgb(60.389709%, 59.609985%, 59.999084%)" d="M 237.285156 276.5 L 235.179688 276.5 L 235.179688 275.90625 C 235.808594 276.285156 236.523438 276.5 237.285156 276.5 M 235.179688 264.449219 L 235.179688 226.773438 L 238.394531 226.773438 L 238.394531 263.855469 L 237.285156 263.855469 C 236.523438 263.855469 235.808594 264.070312 235.179688 264.449219 M 238.394531 189.152344 L 235.179688 189.152344 L 235.179688 177.355469 L 238.394531 177.355469 L 238.394531 189.152344 M 238.394531 139.734375 L 235.179688 139.734375 L 235.179688 133.945312 C 236.300781 133.601562 237.375 133.152344 238.394531 132.613281 L 238.394531 139.734375 " fill-opacity="1" fill-rule="nonzero"/></g><g clip-path="url(#id3)"><path fill="rgb(65.489197%, 64.709473%, 65.098572%)" d="M 77.417969 276.5 L 94.679688 276.5 L 94.679688 121.992188 L 77.417969 121.992188 Z M 77.417969 276.5 " fill-opacity="1" fill-rule="nonzero"/></g><g clip-path="url(#id4)"><path fill="rgb(60.389709%, 59.609985%, 59.999084%)" d="M 94.679688 276.5 L 91.464844 276.5 L 91.464844 226.773438 L 94.679688 226.773438 L 94.679688 276.5 M 94.679688 189.152344 L 91.464844 189.152344 L 91.464844 177.355469 L 94.679688 177.355469 L 94.679688 189.152344 M 94.679688 139.734375 L 91.464844 139.734375 L 91.464844 133.710938 C 92.59375 133.316406 93.664062 132.8125 94.679688 132.21875 L 94.679688 139.734375 " fill-opacity="1" fill-rule="nonzero"/></g><g clip-path="url(#id5)"><path fill="rgb(95.689392%, 95.689392%, 95.689392%)" d="M 61.964844 177.355469 L 250.386719 177.355469 L 250.386719 139.738281 L 61.964844 139.738281 Z M 61.964844 177.355469 " fill-opacity="1" fill-rule="nonzero"/></g><path fill="rgb(94.509888%, 31.759644%, 10.5896%)" d="M 83.449219 139.734375 L 67.878906 177.355469 L 89.65625 177.355469 L 105.222656 139.734375 L 83.449219 139.734375 " fill-opacity="1" fill-rule="nonzero"/><path fill="rgb(94.509888%, 31.759644%, 10.5896%)" d="M 130.953125 139.734375 L 115.382812 177.355469 L 137.160156 177.355469 L 152.726562 139.734375 L 130.953125 139.734375 " fill-opacity="1" fill-rule="nonzero"/><path fill="rgb(94.509888%, 31.759644%, 10.5896%)" d="M 178.449219 139.734375 L 162.882812 177.355469 L 184.660156 177.355469 L 200.226562 139.734375 L 178.449219 139.734375 " fill-opacity="1" fill-rule="nonzero"/><path fill="rgb(94.509888%, 31.759644%, 10.5896%)" d="M 225.957031 139.734375 L 210.390625 177.355469 L 232.160156 177.355469 L 247.730469 139.734375 L 225.957031 139.734375 " fill-opacity="1" fill-rule="nonzero"/><g clip-path="url(#id6)"><path fill="rgb(95.689392%, 95.689392%, 95.689392%)" d="M 61.964844 226.773438 L 250.386719 226.773438 L 250.386719 189.152344 L 61.964844 189.152344 Z M 61.964844 226.773438 " fill-opacity="1" fill-rule="nonzero"/></g><path fill="rgb(94.509888%, 31.759644%, 10.5896%)" d="M 83.449219 189.152344 L 67.878906 226.773438 L 89.65625 226.773438 L 105.222656 189.152344 L 83.449219 189.152344 " fill-opacity="1" fill-rule="nonzero"/><path fill="rgb(94.509888%, 31.759644%, 10.5896%)" d="M 130.953125 189.152344 L 115.382812 226.773438 L 137.160156 226.773438 L 152.726562 189.152344 L 130.953125 189.152344 " fill-opacity="1" fill-rule="nonzero"/><path fill="rgb(94.509888%, 31.759644%, 10.5896%)" d="M 178.449219 189.152344 L 162.882812 226.773438 L 184.660156 226.773438 L 200.226562 189.152344 L 178.449219 189.152344 " fill-opacity="1" fill-rule="nonzero"/><path fill="rgb(94.509888%, 31.759644%, 10.5896%)" d="M 225.957031 189.152344 L 210.390625 226.773438 L 232.160156 226.773438 L 247.730469 189.152344 L 225.957031 189.152344 " fill-opacity="1" fill-rule="nonzero"/><g clip-path="url(#id7)"><path fill="rgb(74.119568%, 73.728943%, 73.728943%)" d="M 103.710938 116.441406 C 103.710938 126.554688 95.488281 134.753906 85.347656 134.753906 C 75.203125 134.753906 66.980469 126.554688 66.980469 116.441406 C 66.980469 106.328125 75.203125 98.128906 85.347656 98.128906 C 95.488281 98.128906 103.710938 106.328125 103.710938 116.441406 " fill-opacity="1" fill-rule="nonzero"/></g><path fill="rgb(98.81897%, 82.749939%, 15.689087%)" d="M 99.414062 116.441406 C 99.414062 124.191406 93.117188 130.46875 85.347656 130.46875 C 77.578125 130.46875 71.277344 124.191406 71.277344 116.441406 C 71.277344 108.695312 77.578125 102.414062 85.347656 102.414062 C 93.117188 102.414062 99.414062 108.695312 99.414062 116.441406 " fill-opacity="1" fill-rule="nonzero"/><path fill="rgb(68.238831%, 67.449951%, 67.83905%)" d="M 85.320312 130.46875 C 85.320312 130.46875 85.316406 130.46875 85.3125 130.46875 C 85.316406 130.46875 85.320312 130.46875 85.320312 130.46875 M 85.296875 130.46875 C 85.292969 130.46875 85.289062 130.46875 85.289062 130.46875 C 85.289062 130.46875 85.292969 130.46875 85.296875 130.46875 M 85.269531 130.46875 C 85.269531 130.46875 85.265625 130.46875 85.261719 130.46875 C 85.265625 130.46875 85.269531 130.46875 85.269531 130.46875 M 85.242188 130.46875 C 85.238281 130.46875 85.238281 130.46875 85.238281 130.46875 C 85.238281 130.46875 85.238281 130.46875 85.242188 130.46875 M 99.414062 116.417969 C 99.414062 116.414062 99.414062 116.410156 99.414062 116.410156 C 99.414062 116.410156 99.414062 116.414062 99.414062 116.417969 M 99.414062 116.390625 C 99.414062 116.390625 99.414062 116.386719 99.414062 116.382812 C 99.414062 116.386719 99.414062 116.390625 99.414062 116.390625 M 99.414062 116.367188 C 99.414062 116.363281 99.414062 116.359375 99.414062 116.359375 C 99.414062 116.359375 99.414062 116.363281 99.414062 116.367188 M 99.414062 116.339844 C 99.414062 116.335938 99.414062 116.335938 99.414062 116.332031 C 99.414062 116.335938 99.414062 116.335938 99.414062 116.339844 " fill-opacity="1" fill-rule="nonzero"/><path fill="rgb(90.19928%, 75.689697%, 14.118958%)" d="M 85.347656 130.46875 C 85.335938 130.46875 85.328125 130.46875 85.320312 130.46875 C 85.320312 130.46875 85.316406 130.46875 85.3125 130.46875 C 85.308594 130.46875 85.300781 130.46875 85.296875 130.46875 C 85.292969 130.46875 85.289062 130.46875 85.289062 130.46875 C 85.28125 130.46875 85.277344 130.46875 85.269531 130.46875 C 85.269531 130.46875 85.265625 130.46875 85.261719 130.46875 C 85.257812 130.46875 85.246094 130.46875 85.242188 130.46875 C 85.238281 130.46875 85.238281 130.46875 85.238281 130.46875 C 80.664062 130.4375 76.625 128.21875 74.082031 124.824219 C 76.429688 126.570312 79.332031 127.617188 82.484375 127.617188 C 90.253906 127.617188 96.554688 121.335938 96.554688 113.589844 C 96.554688 110.445312 95.503906 107.550781 93.75 105.210938 C 97.15625 107.746094 99.378906 111.773438 99.414062 116.332031 C 99.414062 116.335938 99.414062 116.335938 99.414062 116.339844 C 99.414062 116.34375 99.414062 116.351562 99.414062 116.359375 C 99.414062 116.359375 99.414062 116.363281 99.414062 116.367188 C 99.414062 116.371094 99.414062 116.378906 99.414062 116.382812 C 99.414062 116.386719 99.414062 116.390625 99.414062 116.390625 C 99.414062 116.398438 99.414062 116.402344 99.414062 116.410156 C 99.414062 116.410156 99.414062 116.414062 99.414062 116.417969 C 99.414062 116.425781 99.414062 116.433594 99.414062 116.441406 C 99.414062 124.191406 93.117188 130.46875 85.347656 130.46875 " fill-opacity="1" fill-rule="nonzero"/><g clip-path="url(#id8)"><path fill="rgb(87.449646%, 87.449646%, 87.449646%)" d="M 250.386719 177.355469 L 232.160156 177.355469 L 234.222656 172.371094 L 245.5 172.371094 L 245.5 145.125 L 247.730469 139.734375 L 250.386719 139.734375 L 250.386719 177.355469 M 210.390625 177.355469 L 184.660156 177.355469 L 186.722656 172.371094 L 212.453125 172.371094 L 210.390625 177.355469 M 162.882812 177.355469 L 137.160156 177.355469 L 139.21875 172.371094 L 164.945312 172.371094 L 162.882812 177.355469 M 115.382812 177.355469 L 89.65625 177.355469 L 91.71875 172.371094 L 117.445312 172.371094 L 115.382812 177.355469 M 67.878906 177.355469 L 61.964844 177.355469 L 61.964844 172.371094 L 69.941406 172.371094 L 67.878906 177.355469 " fill-opacity="1" fill-rule="nonzero"/></g><path fill="rgb(86.669922%, 29.40979%, 9.408569%)" d="M 89.65625 177.355469 L 67.878906 177.355469 L 69.941406 172.371094 L 91.71875 172.371094 L 89.65625 177.355469 " fill-opacity="1" fill-rule="nonzero"/><path fill="rgb(86.669922%, 29.40979%, 9.408569%)" d="M 137.160156 177.355469 L 115.382812 177.355469 L 117.445312 172.371094 L 139.21875 172.371094 L 137.160156 177.355469 " fill-opacity="1" fill-rule="nonzero"/><path fill="rgb(86.669922%, 29.40979%, 9.408569%)" d="M 184.660156 177.355469 L 162.882812 177.355469 L 164.945312 172.371094 L 186.722656 172.371094 L 184.660156 177.355469 " fill-opacity="1" fill-rule="nonzero"/><path fill="rgb(86.669922%, 29.40979%, 9.408569%)" d="M 232.160156 177.355469 L 210.390625 177.355469 L 212.453125 172.371094 L 234.222656 172.371094 L 232.160156 177.355469 M 245.5 145.125 L 245.5 139.734375 L 247.730469 139.734375 L 245.5 145.125 " fill-opacity="1" fill-rule="nonzero"/><g clip-path="url(#id9)"><path fill="rgb(87.449646%, 87.449646%, 87.449646%)" d="M 250.386719 226.773438 L 232.160156 226.773438 L 234.222656 221.792969 L 245.5 221.792969 L 245.5 194.542969 L 247.730469 189.152344 L 250.386719 189.152344 L 250.386719 226.773438 M 210.390625 226.773438 L 184.660156 226.773438 L 186.722656 221.792969 L 212.449219 221.792969 L 210.390625 226.773438 M 162.882812 226.773438 L 137.160156 226.773438 L 139.21875 221.792969 L 164.945312 221.792969 L 162.882812 226.773438 M 115.382812 226.773438 L 89.65625 226.773438 L 91.714844 221.792969 L 117.441406 221.792969 L 115.382812 226.773438 M 67.878906 226.773438 L 61.964844 226.773438 L 61.964844 221.792969 L 69.941406 221.792969 L 67.878906 226.773438 " fill-opacity="1" fill-rule="nonzero"/></g><path fill="rgb(86.669922%, 29.40979%, 9.408569%)" d="M 89.65625 226.773438 L 67.878906 226.773438 L 69.941406 221.792969 L 91.714844 221.792969 L 89.65625 226.773438 " fill-opacity="1" fill-rule="nonzero"/><path fill="rgb(86.669922%, 29.40979%, 9.408569%)" d="M 137.160156 226.773438 L 115.382812 226.773438 L 117.441406 221.792969 L 139.21875 221.792969 L 137.160156 226.773438 " fill-opacity="1" fill-rule="nonzero"/><path fill="rgb(86.669922%, 29.40979%, 9.408569%)" d="M 184.660156 226.773438 L 162.882812 226.773438 L 164.945312 221.792969 L 186.722656 221.792969 L 184.660156 226.773438 " fill-opacity="1" fill-rule="nonzero"/><path fill="rgb(86.669922%, 29.40979%, 9.408569%)" d="M 232.160156 226.773438 L 210.390625 226.773438 L 212.449219 221.792969 L 234.222656 221.792969 L 232.160156 226.773438 M 245.5 194.542969 L 245.5 189.152344 L 247.730469 189.152344 L 245.5 194.542969 " fill-opacity="1" fill-rule="nonzero"/><g clip-path="url(#id10)"><path fill="rgb(74.119568%, 73.728943%, 73.728943%)" d="M 248.128906 116.441406 C 248.128906 126.554688 239.90625 134.753906 229.761719 134.753906 C 219.621094 134.753906 211.394531 126.554688 211.394531 116.441406 C 211.394531 106.328125 219.621094 98.128906 229.761719 98.128906 C 239.90625 98.128906 248.128906 106.328125 248.128906 116.441406 " fill-opacity="1" fill-rule="nonzero"/></g><path fill="rgb(98.81897%, 82.749939%, 15.689087%)" d="M 243.832031 116.441406 C 243.832031 124.191406 237.53125 130.46875 229.761719 130.46875 C 221.992188 130.46875 215.691406 124.191406 215.691406 116.441406 C 215.691406 108.695312 221.992188 102.414062 229.761719 102.414062 C 237.53125 102.414062 243.832031 108.695312 243.832031 116.441406 " fill-opacity="1" fill-rule="nonzero"/><path fill="rgb(68.238831%, 67.449951%, 67.83905%)" d="M 229.738281 130.46875 C 229.734375 130.46875 229.730469 130.46875 229.730469 130.46875 C 229.730469 130.46875 229.734375 130.46875 229.738281 130.46875 M 229.710938 130.46875 C 229.707031 130.46875 229.707031 130.46875 229.703125 130.46875 C 229.707031 130.46875 229.707031 130.46875 229.710938 130.46875 M 229.683594 130.46875 C 229.683594 130.46875 229.679688 130.46875 229.679688 130.46875 C 229.679688 130.46875 229.683594 130.46875 229.683594 130.46875 M 229.65625 130.46875 C 229.65625 130.46875 229.652344 130.46875 229.652344 130.46875 C 229.652344 130.46875 229.65625 130.46875 229.65625 130.46875 M 243.828125 116.417969 C 243.828125 116.414062 243.828125 116.410156 243.828125 116.410156 C 243.828125 116.410156 243.828125 116.414062 243.828125 116.417969 M 243.828125 116.390625 C 243.828125 116.390625 243.828125 116.386719 243.828125 116.382812 C 243.828125 116.386719 243.828125 116.390625 243.828125 116.390625 M 243.828125 116.367188 C 243.828125 116.363281 243.828125 116.359375 243.828125 116.359375 C 243.828125 116.359375 243.828125 116.363281 243.828125 116.367188 M 243.828125 116.339844 C 243.828125 116.335938 243.828125 116.335938 243.828125 116.332031 C 243.828125 116.335938 243.828125 116.335938 243.828125 116.339844 " fill-opacity="1" fill-rule="nonzero"/><path fill="rgb(90.19928%, 75.689697%, 14.118958%)" d="M 229.761719 130.46875 C 229.753906 130.46875 229.746094 130.46875 229.738281 130.46875 C 229.734375 130.46875 229.730469 130.46875 229.730469 130.46875 C 229.726562 130.46875 229.714844 130.46875 229.710938 130.46875 C 229.707031 130.46875 229.707031 130.46875 229.703125 130.46875 C 229.695312 130.46875 229.691406 130.46875 229.683594 130.46875 C 229.683594 130.46875 229.679688 130.46875 229.679688 130.46875 C 229.671875 130.46875 229.664062 130.46875 229.65625 130.46875 C 229.65625 130.46875 229.652344 130.46875 229.652344 130.46875 C 225.082031 130.4375 221.042969 128.21875 218.496094 124.824219 C 220.84375 126.570312 223.746094 127.617188 226.898438 127.617188 C 234.667969 127.617188 240.96875 121.335938 240.96875 113.589844 C 240.96875 110.445312 239.917969 107.550781 238.164062 105.210938 C 241.574219 107.746094 243.796875 111.773438 243.828125 116.332031 C 243.828125 116.335938 243.828125 116.335938 243.828125 116.339844 C 243.828125 116.34375 243.828125 116.351562 243.828125 116.359375 C 243.828125 116.359375 243.828125 116.363281 243.828125 116.367188 C 243.828125 116.371094 243.828125 116.378906 243.828125 116.382812 C 243.828125 116.386719 243.828125 116.390625 243.828125 116.390625 C 243.828125 116.398438 243.828125 116.402344 243.828125 116.410156 C 243.828125 116.410156 243.828125 116.414062 243.828125 116.417969 C 243.828125 116.425781 243.832031 116.433594 243.832031 116.441406 C 243.832031 124.191406 237.53125 130.46875 229.761719 130.46875 " fill-opacity="1" fill-rule="nonzero"/><path fill="rgb(94.509888%, 31.759644%, 10.5896%)" d="M 292.84375 237.644531 L 253.207031 237.644531 L 265.609375 180.511719 L 280.4375 180.511719 L 292.84375 237.644531 " fill-opacity="1" fill-rule="nonzero"/><path fill="rgb(100%, 100%, 100%)" d="M 300.875 269.703125 L 245.175781 269.703125 L 262.601562 189.421875 L 283.441406 189.421875 L 300.875 269.703125 " fill-opacity="1" fill-rule="nonzero"/><path fill="rgb(100%, 100%, 100%)" d="M 291.691406 227.402344 L 254.359375 227.402344 L 251.964844 238.410156 L 294.078125 238.410156 L 291.691406 227.402344 " fill-opacity="1" fill-rule="nonzero"/><path fill="rgb(100%, 100%, 100%)" d="M 283.441406 189.421875 L 262.601562 189.421875 L 260.671875 198.320312 L 285.378906 198.320312 L 283.441406 189.421875 " fill-opacity="1" fill-rule="nonzero"/><path fill="rgb(100%, 100%, 100%)" d="M 245.175781 269.703125 L 300.875 269.703125 L 300.394531 267.492188 L 245.652344 267.492188 L 245.175781 269.703125 " fill-opacity="1" fill-rule="nonzero"/><path fill="rgb(94.509888%, 31.759644%, 10.5896%)" d="M 285.378906 198.320312 L 260.671875 198.320312 L 254.359375 227.402344 L 291.691406 227.402344 L 285.378906 198.320312 " fill-opacity="1" fill-rule="nonzero"/><path fill="rgb(94.509888%, 31.759644%, 10.5896%)" d="M 249.953125 247.683594 L 245.652344 267.492188 L 300.394531 267.492188 L 296.09375 247.691406 L 249.953125 247.683594 " fill-opacity="1" fill-rule="nonzero"/><g clip-path="url(#id11)"><path fill="rgb(94.509888%, 31.759644%, 10.5896%)" d="M 313.234375 271.441406 C 313.234375 274.234375 311.230469 276.5 308.765625 276.5 L 237.285156 276.5 C 234.816406 276.5 232.8125 274.234375 232.8125 271.441406 L 232.8125 268.914062 C 232.8125 266.121094 234.816406 263.855469 237.285156 263.855469 L 308.765625 263.855469 C 311.230469 263.855469 313.234375 266.121094 313.234375 268.914062 L 313.234375 271.441406 " fill-opacity="1" fill-rule="nonzero"/></g><path fill="rgb(91.369629%, 91.369629%, 91.369629%)" d="M 299.605469 263.855469 L 299.457031 263.175781 L 299.605469 263.855469 " fill-opacity="1" fill-rule="nonzero"/><path fill="rgb(91.369629%, 91.369629%, 91.369629%)" d="M 294.855469 241.984375 L 294.078125 238.410156 L 294.855469 241.984375 M 291.691406 227.402344 L 285.378906 198.320312 L 283.441406 189.421875 L 286.550781 203.71875 L 291.691406 227.402344 " fill-opacity="1" fill-rule="nonzero"/><path fill="rgb(86.669922%, 29.40979%, 9.408569%)" d="M 282.375 189.421875 L 275.617188 189.421875 L 274.324219 180.511719 L 280.4375 180.511719 L 282.375 189.421875 " fill-opacity="1" fill-rule="nonzero"/><path fill="rgb(91.369629%, 91.369629%, 91.369629%)" d="M 296.09375 247.691406 L 284.058594 247.691406 L 282.714844 238.410156 L 294.078125 238.410156 L 294.855469 241.984375 L 296.09375 247.691406 " fill-opacity="1" fill-rule="nonzero"/><path fill="rgb(91.369629%, 91.369629%, 91.369629%)" d="M 294.078125 238.410156 L 282.714844 238.410156 L 281.121094 227.402344 L 291.691406 227.402344 L 294.078125 238.410156 " fill-opacity="1" fill-rule="nonzero"/><path fill="rgb(91.369629%, 91.369629%, 91.369629%)" d="M 285.378906 198.320312 L 276.90625 198.320312 L 275.617188 189.421875 L 283.441406 189.421875 L 285.378906 198.320312 " fill-opacity="1" fill-rule="nonzero"/><path fill="rgb(86.669922%, 29.40979%, 9.408569%)" d="M 291.691406 227.402344 L 281.121094 227.402344 L 276.90625 198.320312 L 285.378906 198.320312 L 291.691406 227.402344 " fill-opacity="1" fill-rule="nonzero"/><path fill="rgb(86.669922%, 29.40979%, 9.408569%)" d="M 299.605469 263.855469 L 286.40625 263.855469 L 284.058594 247.691406 L 296.09375 247.691406 L 296.726562 250.597656 L 299.457031 263.175781 L 299.605469 263.855469 " fill-opacity="1" fill-rule="nonzero"/><g clip-path="url(#id12)"><path fill="rgb(86.669922%, 29.40979%, 9.408569%)" d="M 308.765625 276.5 L 288.5625 276.5 L 289.878906 265.960938 L 286.40625 263.855469 L 308.765625 263.855469 C 311.230469 263.855469 313.234375 266.121094 313.234375 268.914062 L 313.234375 271.441406 C 313.234375 274.234375 311.230469 276.5 308.765625 276.5 " fill-opacity="1" fill-rule="nonzero"/></g></svg>